#!OML:ASF F:\VICON\USERDATA\INSTALL\rory3\rory3.ASF
:FULLY-SPECIFIED
:DEGREES
311
root 4.29117 17.8062 37.9434 -4.8687 -4.71574 0.121461
lowerback 10.2485 1.85107 -0.105935
upperback 1.21965 2.47456 0.599137
thorax -4.50318 1.22892 0.337596
lowerneck -16.182 -2.68186 -1.49343
upperneck 17.8333 -3.55609 1.14642
head 8.25365 -1.667 0.210381
rclavicle -2.60035e-014 9.93923e-016
rhumerus -26.2195 -16.7181 -80.8955
rradius 28.8158
rwrist 4.46624
rhand -18.5732 23.1188
rfingers 7.12502
rthumb 7.71715 -6.72036
lclavicle -2.60035e-014 9.93923e-016
lhumerus -37.8306 3.74599 83.0015
lradius 22.2857
lwrist 3.74033
lhand -25.4984 24.5054
lfingers 7.12502
lthumb 1.03018 54.4827
rfemur -14.9032 -0.541912 21.485
rtibia 77.663
rfoot 3.54973 -8.33499
rtoes 9.14474
lfemur -11.7427 -4.76091 -24.1373
ltibia 31.3997
lfoot -10.5551 0.990644
ltoes 0.139916
312
root 4.28654 17.8087 38.1169 -4.99102 -4.66236 0.0691195
lowerback 10.3356 1.71655 -0.190221
upperback 1.2355 2.29059 0.687086
thorax -4.54042 1.14004 0.499704
lowerneck -15.7383 -2.67586 -1.58012
upperneck 17.6673 -3.54574 1.22103
head 8.12211 -1.66415 0.257567
rclavicle -2.70285e-014 1.33186e-014
rhumerus -26.4485 -16.7252 -80.9362
rradius 28.901
rwrist 4.53076
rhand -18.6597 22.7973
rfingers 7.12502
rthumb 7.63364 -7.04497
lclavicle -2.70285e-014 1.33186e-014
lhumerus -37.5436 3.35458 83.0743
lradius 22.67
lwrist 3.67924
lhand -24.6788 26.4246
lfingers 7.12502
lthumb 1.82175 56.3966
rfemur -16.19 -0.627891 21.7326
rtibia 78.1098
rfoot 2.53104 -8.5736
rtoes 9.70337
lfemur -10.946 -4.75068 -24.1587
ltibia 31.3137
lfoot -11.1126 1.08865
ltoes 1.06523
313
root 4.28609 17.7969 38.2712 -4.80326 -4.54803 0.397462
lowerback 10.3916 1.63106 -0.580032
upperback 1.1147 2.12988 0.614724
thorax -4.70726 1.06749 0.662544
lowerneck -15.4198 -2.65742 -1.62855
upperneck 17.5729 -3.53248 1.32071
head 8.03672 -1.65368 0.30488
rclavicle -1.09891e-014 -1.59028e-014
rhumerus -26.8236 -17.0187 -80.9079
rradius 29.1002
rwrist 4.26549
rhand -18.3885 22.0783
rfingers 7.12502
rthumb 7.89542 -7.75422
lclavicle -1.09891e-014 -1.59028e-014
lhumerus -37.0754 2.87449 83.0656
lradius 22.7966
lwrist 3.78179
lhand -24.7378 24.5743
lfingers 7.12502
lthumb 1.76479 54.5468
rfemur -17.9732 -0.773881 21.4906
rtibia 78.4638
rfoot 1.73318 -8.39923
rtoes 8.61023
lfemur -10.5697 -4.81727 -24.6011
ltibia 31.2982
lfoot -11.571 1.21655
ltoes 1.93367
314
root 4.29061 17.7934 38.4465 -4.68673 -4.37454 0.656595
lowerback 10.4294 1.48491 -0.872768
upperback 1.00752 1.90142 0.596584
thorax -4.84525 0.960938 0.838591
lowerneck -15.3464 -2.5284 -1.67362
upperneck 17.7317 -3.35714 1.36297
head 8.07557 -1.56919 0.346488
rclavicle 9.82742e-015 -1.11319e-014
rhumerus -27.3071 -16.8843 -80.887
rradius 29.4208
rwrist 3.56864
rhand -17.9906 21.1987
rfingers 7.12502
rthumb 8.27942 -8.61908
lclavicle 9.82742e-015 -1.11319e-014
lhumerus -36.465 2.58309 83.0192
lradius 22.6009
lwrist 4.01283
lhand -24.9882 22.524
lfingers 7.12502
lthumb 1.52296 52.4983
rfemur -19.448 -0.990664 21.2719
rtibia 78.5649
rfoot 0.899613 -8.061
rtoes 7.02235
lfemur -9.86107 -4.82297 -25.0466
ltibia 31.1745
lfoot -12.1504 1.46803
ltoes 0.991458
315
root 4.29927 17.8037 38.643 -4.79867 -4.03965 1.06929
lowerback 10.3215 1.28767 -1.19326
upperback 1.1525 1.59921 0.509565
thorax -4.63269 0.815728 0.976277
lowerneck -15.6645 -2.39568 -1.56275
upperneck 17.9487 -3.17346 1.23253
head 8.19767 -1.48499 0.301283
rclavicle 8.38002e-015 9.74045e-015
rhumerus -27.385 -16.8861 -80.9543
rradius 29.5172
rwrist 3.20304
rhand -18.4436 22.5225
rfingers 7.12502
rthumb 7.84218 -7.31207
lclavicle 8.38002e-015 9.74045e-015
lhumerus -35.8789 1.93548 83.1873
lradius 22.8495
lwrist 4.69485
lhand -25.8441 20.8155
lfingers 7.12502
lthumb 0.696294 50.7941
rfemur -20.4475 -1.34099 20.7676
rtibia 78.3834
rfoot 0.356555 -7.42575
rtoes 9.88061
lfemur -8.84345 -4.98767 -25.73
ltibia 31.0796
lfoot -12.8278 1.75421
ltoes 0.122583
316
root 4.30427 17.8019 38.8261 -4.85185 -3.82486 1.28102
lowerback 10.3059 1.17462 -1.34436
upperback 1.16495 1.43186 0.503129
thorax -4.60992 0.735641 1.07894
lowerneck -15.4959 -2.33196 -1.42435
upperneck 17.8426 -3.06458 0.963737
head 8.1236 -1.45284 0.204269
rclavicle -1.05604e-015 -9.14409e-015
rhumerus -27.6192 -17.1455 -80.8029
rradius 29.5628
rwrist 3.0059
rhand -18.3455 23.6763
rfingers 7.12502
rthumb 7.93687 -6.15467
lclavicle -1.05604e-015 -9.14409e-015
lhumerus -35.569 1.10546 83.543
lradius 23.1175
lwrist 4.62458
lhand -27.7505 19.9661
lfingers 7.12502
lthumb -1.14494 49.9427
rfemur -21.5534 -1.48818 20.5769
rtibia 78.0335
rfoot -0.541573 -6.91937
rtoes 9.92055
lfemur -8.11544 -5.0277 -26.1158
ltibia 31.0932
lfoot -13.3908 1.86078
ltoes 0.622911
317
root 4.30703 17.7873 38.9977 -4.83582 -3.77854 0.999772
lowerback 10.5387 1.07016 -1.05211
upperback 0.995581 1.33117 0.64315
thorax -4.91061 0.683925 1.06918
lowerneck -15.0831 -2.25991 -1.34123
upperneck 17.705 -2.94235 0.733941
head 7.9976 -1.41512 0.133901
rclavicle -1.50828e-014 -8.94531e-015
rhumerus -28.2634 -17.207 -80.6117
rradius 29.9181
rwrist 2.79449
rhand -18.0008 22.3289
rfingers 7.12502
rthumb 8.26959 -7.48922
lclavicle -1.50828e-014 -8.94531e-015
lhumerus -35.2718 0.918855 83.4259
lradius 23.2055
lwrist 3.01252
lhand -29.2946 19.8332
lfingers 7.12502
lthumb -2.6362 49.7966
rfemur -22.6692 -1.38118 21.0654
rtibia 77.4942
rfoot -1.64949 -6.66276
rtoes 8.27418
lfemur -7.61506 -4.88153 -25.9062
ltibia 31.2918
lfoot -14.0148 1.93767
ltoes 0.65828
318
root 4.30391 17.7711 39.1586 -4.73401 -3.703 0.664978
lowerback 10.7805 0.974384 -0.734195
upperback 0.911023 1.24702 0.773413
thorax -5.12803 0.638166 1.03412
lowerneck -15.0539 -2.25506 -1.409
upperneck 17.5856 -2.91187 0.701154
head 7.95293 -1.40897 0.138643
rclavicle -1.14922e-014 -1.07344e-014
rhumerus -28.6917 -16.9859 -80.6266
rradius 30.1404
rwrist 1.8777
rhand -18.0326 22.0299
rfingers 7.12502
rthumb 8.23886 -7.78943
lclavicle -1.14922e-014 -1.07344e-014
lhumerus -34.6779 0.75272 83.2527
lradius 23.1661
lwrist 2.29533
lhand -29.649 17.923
lfingers 7.12502
lthumb -2.97845 47.8819
rfemur -23.9275 -1.24281 21.6559
rtibia 76.8139
rfoot -2.88056 -6.5286
rtoes 7.03055
lfemur -7.29474 -4.90403 -25.5999
ltibia 31.5916
lfoot -14.6076 2.04958
ltoes 1.06849
319
root 4.29863 17.7498 39.3091 -4.53447 -3.57777 0.50342
lowerback 10.8571 0.870132 -0.65866
upperback 0.899603 1.12108 0.842307
thorax -5.17961 0.575358 1.0815
lowerneck -14.9083 -3.18252 -3.40565
upperneck 17.5992 -4.12343 2.67876
head 8.03421 -1.92194 0.984883
rclavicle -9.88954e-015 -1.23246e-014
rhumerus -28.772 -16.8145 -80.7614
rradius 30.0904
rwrist 1.21113
rhand -18.1732 22.4459
rfingers 7.12502
rthumb 8.10315 -7.37874
lclavicle -9.88954e-015 -1.23246e-014
lhumerus -33.9879 -0.407684 83.5991
lradius 23.0885
lwrist 4.12113
lhand -29.5989 15.7431
lfingers 7.12502
lthumb -2.93012 45.7027
rfemur -25.3909 -1.07843 22.0447
rtibia 76.0343
rfoot -4.10041 -6.50961
rtoes 5.77779
lfemur -7.09112 -4.88565 -25.4502
ltibia 31.7868
lfoot -15.0959 2.03953
ltoes 1.20598
